<svg xmlns="http://www.w3.org/2000/svg" xmlns:xlink="http://www.w3.org/1999/xlink" version="1.1" id="Layer_1" x="0px" y="0px" width="96px" height="99.818px" viewBox="-3.456 0 96 99.818" enable-background="new -3.456 0 96 99.818" xml:space="preserve">
<g>
	<circle fill="#000000" cx="18.557" cy="13.984" r="10.439"/>
	<circle fill="#000000" cx="44.277" cy="13.984" r="10.44"/>
	<circle fill="#000000" cx="69.867" cy="13.984" r="10.44"/>
	<path fill="#000000" d="M59.231,28.193h-29.77c-2.544,0-4.606,2.062-4.606,4.604v26.32c0,2.545,2.062,4.604,4.606,4.604h1.417   v32.55h26.393v-32.55h1.96c2.544,0,4.604-2.06,4.604-4.604v-26.32C63.834,30.256,61.775,28.193,59.231,28.193z"/>
	<g>
		<path fill="#000000" d="M18.361,59.118v-26.32c0-1.646,0.383-3.196,1.028-4.604H4.015c-2.542,0-4.604,2.062-4.604,4.604v26.32    c0,2.545,2.062,4.604,4.604,4.604h1.418v32.55h18.949V68.988C20.809,67.144,18.361,63.411,18.361,59.118z"/>
		<path fill="#000000" d="M85.083,28.193H69.304c0.645,1.408,1.029,2.959,1.029,4.604v26.32c0,4.508-2.7,8.392-6.566,10.13v27.024    h19.358v-32.55h1.957c2.543,0,4.606-2.06,4.606-4.604v-26.32C89.689,30.256,87.625,28.193,85.083,28.193z"/>
	</g>
</g>
</svg>