<svg xmlns="http://www.w3.org/2000/svg" xmlns:xlink="http://www.w3.org/1999/xlink" version="1.1" id="Layer_1" x="0px" y="0px" width="99.566px" height="99.671px" viewBox="0 0 99.566 99.671" enable-background="new 0 0 99.566 99.671" xml:space="preserve">
<g>
	<path d="M88.524,24.131c2.753,0.097,5.478-0.861,7.521-2.901c4.046-4.047,3.854-10.798-0.42-15.074l-2.817-2.818   C88.524-0.943,81.78-1.13,77.733,2.917c-2.042,2.042-2.998,4.771-2.907,7.521c-8.034-3.131-17.251-1.681-23.462,4.52L26.169,40.152   l8.455,8.459l25.199-25.197c4.114-4.104,10.949-3.911,15.301,0.427c4.335,4.347,4.533,11.19,0.431,15.305L75,39.699l8.446,8.448   l0.558-0.554C90.21,41.386,91.664,32.172,88.524,24.131z"/>
</g>
<g>
	<path d="M75.435,88.69c-0.096,2.752,0.86,5.478,2.902,7.521c4.044,4.046,10.798,3.851,15.074-0.423l2.817-2.814   c4.283-4.283,4.466-11.031,0.422-15.076c-2.045-2.044-4.77-2.998-7.522-2.905c3.135-8.035,1.686-17.253-4.519-23.466L59.415,26.332   l-8.458,8.458L76.15,59.984c4.107,4.117,3.912,10.954-0.425,15.305c-4.347,4.336-11.189,4.534-15.307,0.429l-0.556-0.555   l-8.447,8.449l0.556,0.553C58.179,90.371,67.396,91.828,75.435,88.69z"/>
</g>
<g>
	<path d="M10.938,75.541c-2.752-0.1-5.479,0.858-7.524,2.902c-4.043,4.044-3.852,10.799,0.419,15.073l2.818,2.819   c4.283,4.283,11.03,4.463,15.074,0.419c2.046-2.042,3.002-4.769,2.906-7.52c8.035,3.135,17.252,1.685,23.459-4.516l25.199-25.197   l-8.46-8.458L39.632,76.263c-4.11,4.101-10.946,3.906-15.295-0.434c-4.334-4.346-4.536-11.188-0.437-15.297l0.559-0.557   l-8.447-8.448l-0.559,0.558C9.252,58.286,7.796,67.5,10.938,75.541z"/>
</g>
<g>
	<path d="M24.131,10.654c0.099-2.752-0.861-5.478-2.903-7.52C17.185-0.912,10.43-0.72,6.155,3.555L3.336,6.372   C-0.942,10.654-1.13,17.4,2.917,21.445c2.042,2.042,4.768,3,7.52,2.906c-3.134,8.037-1.681,17.252,4.519,23.464l25.198,25.196   l8.455-8.459L23.414,39.357c-4.105-4.115-3.911-10.953,0.427-15.302c4.345-4.334,11.188-4.534,15.306-0.428l0.555,0.553   l8.448-8.448l-0.555-0.553C41.387,8.971,32.17,7.514,24.131,10.654z"/>
</g>
</svg>